Coordinates
version=1
nRows=37
nColumns=19
inDegrees=yes

Units are S.I. units (second, meters, Newtons, ...)
If the header above contains a line with 'inDegrees', this indicates whether rotational values are in degrees (yes) or radians (no).

endheader
time	pelvis_tilt	pelvis_list	pelvis_rotation	pelvis_tx	pelvis_ty	pelvis_tz	hip_flexion_r	hip_adduction_r	hip_rotation_r	knee_angle_r	knee_angle_r_beta	ankle_angle_r	hip_flexion_l	hip_adduction_l	hip_rotation_l	knee_angle_l	knee_angle_l_beta	ankle_angle_l
     16.80000000	     -4.58517546	     11.25228248	      1.29218056	      2.24333515	      1.04166027	      1.04958504	    -15.12935509	    -16.79159117	    -19.63906857	     85.02946754	      1.48404417	    -27.35871486	     25.20454160	     14.97134489	    -15.54311106	      8.15743462	      0.14237409	     -1.35694034
     16.80666667	     -4.99325447	     11.91318409	      1.94114154	      2.24203702	      1.03530556	      1.04858162	    -13.42613065	    -17.85338607	    -19.40873767	     89.05110864	      1.55423505	    -26.94097776	     26.34040243	     15.30460504	    -17.24031657	     11.77759910	      0.20555788	     -0.81485860
     16.81333333	     -5.47167664	     12.49227555	      2.55718257	      2.24057462	      1.02868051	      1.04786873	    -11.50048657	    -18.79566628	    -18.92828111	     93.00268081	      1.62320299	    -26.48730115	     27.56746080	     15.42443666	    -18.84920303	     15.78820397	      0.27555614	     -0.03432318
     16.82000000	     -6.01472649	     12.96096443	      3.08146651	      2.23892504	      1.02191918	      1.04750749	     -9.30210317	    -19.59584633	    -18.13984346	     96.87368425	      1.69076475	    -26.07232041	     28.78878662	     15.35102689	    -20.19871705	     19.94118457	      0.34803933	      1.07552947
     16.82666667	     -6.59869377	     13.30499713	      3.66529918	      2.23712764	      1.01517844	      1.04729148	     -6.94410352	    -20.21271185	    -17.24817066	    100.60211157	      1.75583808	    -25.63877528	     29.91035958	     15.20638087	    -21.04099262	     24.07974497	      0.42027083	      2.44435133
     16.83333333	     -7.21843533	     13.55609920	      4.19497484	      2.23507026	      1.00864415	      1.04721882	     -4.34114995	    -20.71224604	    -16.12727844	    104.19972762	      1.81862833	    -25.24054828	     30.89225454	     15.05282463	    -21.41771576	     27.99965690	      0.48868620	      4.12644829
     16.84000000	     -7.71132958	     13.71085133	      4.64247862	      2.23275990	      1.00266822	      1.04730931	     -1.68514432	    -21.06283115	    -14.82427060	    107.60013446	      1.87797662	    -24.82964581	     31.54697553	     14.90531138	    -21.40110801	     31.62760517	      0.55200584	      6.10355494
     16.84666667	     -8.23444162	     13.75800313	      5.08352196	      2.23019733	      0.99717174	      1.04736108	      1.18252988	    -21.27115216	    -13.38442456	    110.80163926	      1.93385342	    -24.40706896	     32.01132016	     14.81196714	    -20.96403093	     34.86681803	      0.60854077	      8.33257727
     16.85333333	     -8.57334656	     13.70599901	      5.39278840	      2.22740766	      0.99257395	      1.04751475	      4.05397360	    -21.31462432	    -11.77334122	    113.73777112	      1.98509859	    -23.91857226	     32.04635261	     14.71032909	    -20.29660542	     37.66327523	      0.65734816	     10.74061379
     16.86000000	     -8.66081456	     13.57358732	      5.60678494	      2.22448773	      0.98901154	      1.04767796	      6.78994424	    -21.20597680	    -10.09620532	    116.36179104	      2.03089638	    -23.26023893	     31.54342346	     14.62242342	    -19.42107479	     39.95887644	      0.69741396	     13.23231298
     16.86666667	     -8.86049550	     13.22772792	      5.84481003	      2.22166962	      0.98624029	      1.04766406	      9.75289347	    -20.82242169	     -8.43458713	    118.61194214	      2.07016892	    -22.66969717	     30.86242539	     14.46047726	    -18.26923148	     41.73488066	      0.72841108	     15.76868001
     16.87333333	     -7.62339896	     12.56147443	      6.24021002	      2.22072014	      0.98687738	      1.04755388	     10.60229661	    -19.92067256	     -7.71309640	    119.74329058	      2.08991468	    -22.01562770	     28.06914898	     14.10024156	    -16.53655526	     42.81159052	      0.74720321	     18.24868491
     16.88000000	     -5.51337463	     11.30659530	      6.86640229	      2.22122061	      0.99016375	      1.04710257	     10.11305817	    -18.23689056	     -7.83804287	    119.89211648	      2.09251218	    -21.41561848	     23.89391030	     13.13934732	    -14.24364505	     43.30921496	      0.75588840	     20.68709043
     16.88666667	     -2.68138089	     10.72347810	      6.87095374	      2.22147678	      0.99474281	      1.04678317	      9.02354488	    -17.28649511	     -7.34926587	    119.92175652	      2.09302950	    -20.21618385	     18.51986825	     12.53366413	    -12.62027508	     42.76014175	      0.74630526	     22.57713266
     16.89333333	     -1.03601477	      9.57939013	      6.83521734	      2.22109653	      0.99835365	      1.04614580	      9.59213287	    -15.78685926	     -6.59741471	    119.93475296	      2.09325633	    -18.93395886	     14.46823124	     11.30969968	    -11.25760784	     42.06137988	      0.73410957	     24.18564528
     16.90000000	     -0.05527438	      8.36273823	      6.59528696	      2.22031064	      1.00147345	      1.04540682	     11.11360212	    -14.23408840	     -5.52078493	    119.93954711	      2.09334000	    -17.42995907	     11.05070365	     10.01244912	    -10.28876879	     40.99005005	      0.71541133	     25.31830742
     16.90666667	      0.06938099	      7.17818803	      6.22082703	      2.21927179	      1.00381429	      1.04448794	     13.70067095	    -12.82596468	     -4.24851116	    119.93951915	      2.09333951	    -15.68387163	      8.48983679	      8.83619908	     -9.66044913	     39.65032143	      0.69202866	     25.97271629
     16.91333333	     -0.45668050	      6.11846146	      5.43075044	      2.21799276	      1.00558029	      1.04393290	     17.21269086	    -11.45297115	     -2.53400896	    119.93393435	      2.09324204	    -13.98374990	      6.55762329	      7.82457242	     -9.63766718	     38.04327914	      0.66398048	     26.02739729
     16.92000000	     -1.82808979	      5.26055537	      4.36736705	      2.21655100	      1.00637850	      1.04373740	     21.76148763	    -10.14307997	     -0.53675871	    119.92111063	      2.09301822	    -12.30520806	      5.50755419	      7.11507879	    -10.01910015	     36.32596170	      0.63400764	     25.52510430
     16.92666667	     -3.98607524	      4.77687090	      3.06365549	      2.21502700	      1.00615153	      1.04395772	     27.24456466	     -8.98998670	      1.72174095	    119.88913741	      2.09246019	    -10.71653327	      5.27357028	      6.84435111	    -10.77130903	     34.52127902	      0.60250998	     24.45124660
     16.93333333	     -7.17267401	      4.54767490	      1.74790516	      2.21335314	      1.00448502	      1.04464158	     33.86062909	     -7.75536974	      3.98494338	    119.77697403	      2.09050256	     -9.29671859	      6.28101744	      6.80029427	    -11.69775221	     32.95350532	      0.57514717	     22.91915658
     16.94000000	     -9.14484121	      4.41835317	      0.57292015	      2.21318000	      1.00504682	      1.04512070	     38.57421532	     -6.60081948	      5.62848085	    118.95245884	      2.07611206	     -7.91955068	      5.65473034	      6.85487530	    -12.45330126	     30.78480287	      0.53729617	     20.60893489
     16.94666667	    -10.03984007	      3.38534674	     -0.11600045	      2.21517243	      1.00872062	      1.04491946	     41.21022481	     -4.92883488	      5.75937011	    117.02137418	      2.04240827	     -6.66591314	      3.61878150	      6.00687570	    -12.70131854	     28.22469654	      0.49261389	     17.58661061
     16.95333333	    -10.76535977	      2.18144934	     -0.70050788	      2.21778740	      1.01311275	      1.04466452	     43.34673663	     -3.23639486	      5.45572693	    114.69615821	      2.00182560	     -5.53845780	      1.39154018	      4.98474055	    -13.00866403	     25.57459275	      0.44636085	     13.94217166
     16.96000000	    -11.47354721	      0.88492456	     -1.13379491	      2.22076702	      1.01783953	      1.04431686	     45.22288724	     -1.64573825	      4.80043181	    112.07920382	      1.95615113	     -4.54556270	     -0.76904191	      3.84742924	    -13.41108438	     22.98534307	      0.40116992	      9.77588888
     16.96666667	    -11.61435153	     -0.48384405	     -1.34851933	      2.22403577	      1.02340335	      1.04367685	     46.22089181	     -0.30376497	      3.78076929	    109.19918827	      1.90588538	     -3.42064424	     -3.41048178	      2.60577407	    -13.97512720	     20.51402869	      0.35803734	      5.01984117
     16.97333333	    -12.12595051	     -1.80631713	     -1.56506248	      2.22729762	      1.02850742	      1.04318164	     47.53801211	      0.97121518	      2.73192790	    106.17408439	      1.85308735	     -2.57956820	     -5.40788209	      1.33285243	    -14.96724023	     18.41261301	      0.32136072	      0.05231255
     16.98000000	    -12.50003123	     -3.09100131	     -1.62423613	      2.23058053	      1.03374510	      1.04243668	     48.55685220	      1.98134864	      1.51074783	    102.98456890	      1.79741981	     -1.77579540	     -7.29985840	      0.03001288	    -16.32005754	     16.68164783	      0.29114968	     -5.07460898
     16.98666667	    -12.83397259	     -4.26478942	     -1.63736003	      2.23376008	      1.03887007	      1.04163888	     49.42960091	      2.79251848	      0.27735512	     99.68537582	      1.73983802	     -1.03430372	     -8.93981071	     -1.24458769	    -18.15591006	     15.45087496	      0.26966864	    -10.14872699
     16.99333333	    -12.99882105	     -5.34917925	     -1.47883076	      2.23688156	      1.04400033	      1.04054039	     49.99152674	      3.30126476	     -1.08657814	     96.27576238	      1.68032904	     -0.30414112	    -10.48146712	     -2.51809920	    -20.30233885	     14.70138194	      0.25658752	    -14.95662921
     17.00000000	    -13.05682109	     -6.29902853	     -1.28424881	      2.23978547	      1.04895677	      1.03944625	     50.34794391	      3.62464527	     -2.44239016	     92.79021490	      1.61949476	      0.42008638	    -11.84891286	     -3.77303373	    -22.85905223	     14.53703338	      0.25371910	    -19.34715621
     17.00666667	    -13.26319957	     -7.07088795	     -1.18839361	      2.24241797	      1.05334160	      1.03858934	     50.79766629	      3.86252962	     -3.67346598	     89.24588953	      1.55763462	      1.06854963	    -12.78836345	     -4.99043826	    -25.86495167	     15.04661122	      0.26261291	    -23.01091052
     17.01333333	    -13.08669948	     -7.80402612	     -0.88457374	      2.24494521	      1.05772315	      1.03752630	     50.70814729	      3.84953424	     -5.14093689	     85.63435244	      1.49460140	      1.76671216	    -13.98409578	     -6.28969846	    -28.79232675	     15.96389121	      0.27862246	    -25.94501914
     17.02000000	    -12.73436417	     -8.47141411	     -0.54298524	      2.24724976	      1.06189032	      1.03668642	     50.32306526	      3.78900380	     -6.66685653	     81.93101322	      1.42996594	      2.41965394	    -15.24727593	     -7.61725786	    -31.49041717	     17.27921279	      0.30157916	    -28.11798886
     17.02666667	    -12.37154219	     -9.09310200	     -0.26286991	      2.24927324	      1.06556363	      1.03634003	     49.84440496	      3.79624602	     -8.20529832	     78.14724548	      1.36392674	      2.97224642	    -16.41446689	     -8.98994456	    -33.86740573	     19.03792621	      0.33227450	    -29.42939587
     17.03333333	    -11.95004488	     -9.60290533	      0.00364313	      2.25103712	      1.06879343	      1.03643172	     49.21950426	      3.80307510	     -9.73158412	     74.30529235	      1.29687200	      3.41898658	    -17.56850947	    -10.25911539	    -35.57975125	     21.05161772	      0.36742004	    -30.10303516
     17.04000000	    -11.46997295	    -10.09919995	      0.26298718	      2.25249456	      1.07168476	      1.03703482	     48.43544216	      3.91339051	    -11.29845606	     70.34672518	      1.22778197	      3.70662858	    -18.66534404	    -11.49788348	    -36.45366940	     23.32986222	      0.40718291	    -30.19812414
